<?xml version="1.0" encoding="UTF-8" standalone="no"?>
<svg
   xmlns:dc="http://purl.org/dc/elements/1.1/"
   xmlns:cc="http://creativecommons.org/ns#"
   xmlns:rdf="http://www.w3.org/1999/02/22-rdf-syntax-ns#"
   xmlns:svg="http://www.w3.org/2000/svg"
   xmlns="http://www.w3.org/2000/svg"
   xmlns:sodipodi="http://sodipodi.sourceforge.net/DTD/sodipodi-0.dtd"
   xmlns:inkscape="http://www.inkscape.org/namespaces/inkscape"
   inkscape:version="1.0 (4035a4fb49, 2020-05-01)"
   sodipodi:docname="logo.svg"
   id="svg8"
   xml:space="preserve"
   width="512px"
   viewBox="0 0 512 512"
   version="1.1"
   style="enable-background:new 0 0 512 512;"
   height="512px"><metadata
     id="metadata14"><rdf:RDF><cc:Work
         rdf:about=""><dc:format>image/svg+xml</dc:format><dc:type
           rdf:resource="http://purl.org/dc/dcmitype/StillImage" /></cc:Work></rdf:RDF></metadata><defs
     id="defs12" /><sodipodi:namedview
     inkscape:current-layer="g4"
     inkscape:window-maximized="1"
     inkscape:window-y="-8"
     inkscape:window-x="1912"
     inkscape:cy="15.607268"
     inkscape:cx="-143.33682"
     inkscape:zoom="0.35355339"
     showgrid="false"
     id="namedview10"
     inkscape:window-height="1017"
     inkscape:window-width="1920"
     inkscape:pageshadow="2"
     inkscape:pageopacity="0"
     guidetolerance="10"
     gridtolerance="10"
     objecttolerance="10"
     borderopacity="1"
     bordercolor="#666666"
     pagecolor="#ffffff" /><g
     id="_x32_9_x2C__planet_x2C__space_x2C__moon_x2C__flag_x2C__mars"><g
       id="g4"><path
         id="path2"
         style="fill-rule:evenodd;clip-rule:evenodd;fill:#58b597;fill-opacity:1"
         d="M196.557,326.526c24.9-11.536,51.231-25.326,76.924-40.151    c25.693-14.854,50.804-30.774,73.254-46.574c28.175-19.816,52.208-39.299,67.944-56.041l-3.453-7.122l-4.17-7.672l-0.091-0.151    c-24.065-41.674-62.771-69.68-105.875-81.217c-43.072-11.566-90.545-6.666-132.22,17.352l-0.105,0.061    c-41.703,24.049-69.678,62.77-81.231,105.873s-6.65,90.621,17.411,132.325l4.643,7.579l4.429,6.546    C136.39,352.066,165.294,341.016,196.557,326.526 M294.075,322.508c-53.12,30.654-104.916,54.003-148.778,68.34    c26.784,21.947,59.402,35.219,93.328,38.659c35.116,3.53,71.66-3.501,104.52-22.465c32.754-18.935,57.047-46.849,71.552-78.841    c14.153-31.172,18.993-66.238,13.347-100.576c-34.397,30.867-80.593,64.078-133.758,94.762L294.075,322.508z M98.477,346.922    c-5.145-8.949-9.465-18.112-12.968-27.488c-6.271,7.459-10.837,14.217-13.438,20c-2.649,5.936-3.183,10.654-1.34,13.881    c4.429,7.671,17.183,9.041,35.358,5.692l-2.772-4.17l-0.06-0.091L98.477,346.922z M396.111,140.139    c6.271,7.58,12.009,15.799,17.108,24.626l0.396,0.64l4.246,7.854l2.222,4.476c11.979-14.095,17.169-25.814,12.739-33.485    c-1.874-3.227-6.271-5.113-12.771-5.783C413.753,137.855,405.656,138.434,396.111,140.139z M277.227,292.829    c-25.907,14.946-52.436,28.827-77.532,40.485c-66.042,30.594-122.92,45.388-135.432,23.714c-3.12-5.449-2.649-12.45,1.004-20.608    c3.289-7.367,9.223-15.859,17.428-25.113c-1.323-4.141-2.481-8.279-3.485-12.451c-20.306,19.239-35.527,37.229-44.413,52.754    c-8.647,15.068-11.202,27.428-6.394,35.768c9.118,15.799,42.556,16.134,89.208,3.896c48.021-12.602,109.419-38.659,172.765-75.249    l0.169-0.091c63.438-36.621,116.785-76.802,151.729-112.113c33.835-34.184,50.26-63.256,41.311-79.055l-0.063-0.121    c-4.825-8.371-16.849-12.359-34.214-12.39c-17.87-0.03-41.079,4.14-67.866,12.085c3.102,2.982,6.117,6.059,9.022,9.254    c12.072-2.436,22.345-3.349,30.336-2.557c8.981,0.913,15.326,4.018,18.478,9.467c12.512,21.674-28.722,63.529-88.25,105.416    C328.412,261.84,303.116,277.883,277.227,292.829z" /></g></g><g
     id="Layer_1" /></svg>
